<?xml version="1.0" encoding="iso-8859-1"?>
<!-- Generator: Adobe Illustrator 19.0.0, SVG Export Plug-In . SVG Version: 6.00 Build 0)  -->
<svg version="1.1" id="Capa_1" xmlns="http://www.w3.org/2000/svg" xmlns:xlink="http://www.w3.org/1999/xlink" x="0px" y="0px"
	 viewBox="0 0 512.002 512.002" style="enable-background:new 0 0 512.002 512.002;" xml:space="preserve">
<path style="fill:#B3FFF9;" d="M333.343,152.518c0.887-13.855,12.152-25.069,26.011-25.913c2.402-0.146,4.743,0.015,6.988,0.445
	c1.05,0.201,2.113-0.19,2.789-1.018c5.292-6.478,13.626-9.342,21.617-7.707c1.451,0.297,2.86-0.561,3.294-1.976
	c4.634-15.115,18.693-26.108,35.329-26.108c19.858,0,36.053,15.662,36.915,35.305c0.001,0.011,0.005,0.018,0.006,0.029
	c0.202,2.582,3.215,2.078,3.215,2.078l-0.004,0.006c2.221-0.41,4.533-0.561,6.908-0.401c13.587,0.911,24.604,11.913,25.524,25.498
	c1.086,16.038-11.604,29.386-27.413,29.386c-4.001,0-108.89,0-113.442,0C345.124,182.143,332.307,168.697,333.343,152.518z"/>
<rect x="11.818" y="437.55" style="fill:#18BB7D;" width="489.68" height="63.766"/>
<path d="M449.94,479.751c-2.63,0-5.21-1.07-7.069-2.931c-0.46-0.46-0.88-0.97-1.24-1.52c-0.36-0.54-0.67-1.12-0.92-1.73
	c-0.25-0.6-0.45-1.229-0.57-1.869c-0.13-0.641-0.2-1.301-0.2-1.95c0-0.65,0.07-1.31,0.2-1.96c0.12-0.63,0.32-1.261,0.57-1.87
	c0.25-0.601,0.56-1.18,0.92-1.72c0.36-0.551,0.78-1.061,1.24-1.521s0.97-0.88,1.52-1.25c0.54-0.35,1.12-0.66,1.72-0.91
	c0.61-0.25,1.24-0.45,1.881-0.569c3.25-0.66,6.699,0.409,9.02,2.729c0.46,0.46,0.88,0.97,1.25,1.521c0.35,0.54,0.66,1.119,0.91,1.72
	c0.25,0.609,0.45,1.24,0.57,1.87c0.13,0.65,0.199,1.31,0.199,1.96c0,0.649-0.069,1.31-0.199,1.95c-0.12,0.64-0.32,1.27-0.57,1.869
	c-0.25,0.61-0.56,1.19-0.92,1.73c-0.36,0.55-0.78,1.06-1.24,1.52s-0.97,0.881-1.52,1.24c-0.54,0.36-1.12,0.67-1.721,0.92
	c-0.609,0.25-1.239,0.45-1.88,0.57C451.25,479.681,450.59,479.751,449.94,479.751z"/>
<path d="M410.047,479.75H63.378c-5.522,0-10-4.477-10-10c0-5.522,4.478-10,10-10h346.669c5.522,0,10,4.478,10,10
	C420.047,475.273,415.569,479.75,410.047,479.75z"/>
<path style="fill:#B3FFF9;" d="M129.13,356.2c20.615,0,37.326-16.71,37.326-37.322s-16.712-37.322-37.326-37.322
	c-3.015,0-5.942,0.367-8.75,1.042c-4.64-15.333-18.877-26.499-35.727-26.499c-20.469,0-37.081,16.476-37.316,36.887
	c-1.783-0.31-3.614-0.48-5.486-0.48C24.261,292.504,10,306.762,10,324.352c0,17.589,14.26,31.848,31.852,31.848L129.13,356.2
	L129.13,356.2z"/>
<path d="M129.13,366.199H41.852C18.774,366.199,0,347.427,0,324.352c0-21.975,17.029-40.048,38.584-41.722
	c4.923-20.882,23.793-36.533,46.069-36.533c18.051,0,34.031,9.969,42.032,25.521c0.814-0.042,1.63-0.063,2.444-0.063
	c26.096,0,47.326,21.228,47.326,47.322C176.456,344.971,155.226,366.199,129.13,366.199z M41.852,302.504
	c-12.049,0-21.852,9.801-21.852,21.848S29.803,346.2,41.852,346.2h87.278c15.067,0,27.326-12.257,27.326-27.322
	s-12.259-27.322-27.326-27.322c-2.146,0-4.304,0.257-6.413,0.764c-5.154,1.241-10.374-1.757-11.908-6.826
	c-3.456-11.42-14.212-19.396-26.155-19.396c-14.892,0-27.146,12.113-27.317,27.003c-0.033,2.932-1.353,5.701-3.607,7.575
	c-2.256,1.875-5.221,2.663-8.108,2.161C44.355,302.615,43.088,302.504,41.852,302.504z"/>
<path style="fill:#4BC6FF;" d="M127.872,99.532c16.243,0,29.41-13.166,29.41-29.407s-13.167-29.407-29.41-29.407
	c-2.375,0-4.682,0.289-6.894,0.821c-3.656-12.081-14.873-20.879-28.149-20.879c-16.127,0-29.217,12.981-29.401,29.064
	c-1.405-0.244-2.848-0.379-4.322-0.379c-13.86,0-25.096,11.235-25.096,25.093c0,13.859,11.236,25.093,25.096,25.093L127.872,99.532
	L127.872,99.532z"/>
<path d="M127.872,109.531H59.105c-19.352,0-35.096-15.742-35.096-35.093c0-17.91,13.485-32.729,30.837-34.837
	c4.62-16.643,19.963-28.941,37.983-28.941c14.567,0,27.514,7.795,34.364,20.064c0.227-0.004,0.452-0.006,0.679-0.006
	c21.73,0,39.41,17.678,39.41,39.406S149.602,109.531,127.872,109.531z M59.105,59.345c-8.324,0-15.096,6.771-15.096,15.094
	s6.771,15.093,15.096,15.093h68.767c10.703,0,19.41-8.706,19.41-19.406s-8.707-19.406-19.41-19.406
	c-1.525,0-3.058,0.183-4.554,0.543c-5.157,1.238-10.377-1.755-11.911-6.826c-2.455-8.11-10.095-13.775-18.578-13.775
	c-10.577,0-19.28,8.604-19.402,19.179c-0.033,2.931-1.352,5.7-3.607,7.574c-2.254,1.874-5.218,2.665-8.105,2.163
	C60.833,59.423,59.955,59.345,59.105,59.345z"/>
<polygon style="fill:#D38A5A;" points="256.66,10.687 312.21,78.048 201.108,78.048 "/>
<rect x="198.35" y="274.25" style="fill:#FF8951;" width="116.61" height="163.3"/>
<rect x="179.97" y="116.22" style="fill:#D38A5A;" width="153.31" height="158.03"/>
<rect x="193.12" y="78.05" style="fill:#FCC595;" width="127.08" height="38.18"/>
<path d="M501.5,427.549H324.964V284.253h8.32c5.522,0,10-4.478,10-10v-86.577c5.433,2.896,11.55,4.466,17.796,4.466h113.442
	c10.341,0,20.323-4.335,27.387-11.893c7.162-7.663,10.715-17.667,10.004-28.171c-1.261-18.591-16.235-33.551-34.833-34.798
	c-0.605-0.041-1.211-0.066-1.816-0.078C470.69,95.94,451.86,80.24,429.371,80.24c-18.766,0-35.305,10.889-42.807,27.631
	c-0.1-0.001-0.198-0.001-0.297-0.001c-8.187,0-16.081,3.128-22.071,8.81c-1.808-0.147-3.63-0.168-5.45-0.057
	c-5.563,0.338-10.803,1.883-15.462,4.374v-4.774c0-5.522-4.478-10-10-10h-3.083V78.048c0-5.522-4.478-10-10-10h-3.276l-52.55-63.724
	c-1.899-2.304-4.728-3.638-7.715-3.638c-2.985,0-5.815,1.334-7.715,3.638l-52.552,63.724h-3.276c-5.523,0-10,4.478-10,10v28.177
	h-3.148c-5.522,0-10,4.478-10,10v158.028c0,5.522,4.478,10,10,10h8.385v143.296H11.818c-5.523,0-10,4.477-10,10v63.767
	c0,5.522,4.477,10,10,10H501.5c5.522,0,10-4.478,10-10v-63.767C511.5,432.027,507.022,427.549,501.5,427.549z M189.97,264.253
	V126.225h133.315v138.028H189.97z M343.322,153.156c0.561-8.758,7.869-16.036,16.64-16.569c0.373-0.022,0.745-0.034,1.117-0.034
	c1.141,0,2.273,0.106,3.383,0.319c4.651,0.891,9.41-0.837,12.415-4.514c2.876-3.521,7.42-5.148,11.873-4.233
	c6.52,1.324,12.898-2.475,14.853-8.844c3.492-11.389,13.848-19.04,25.768-19.04c14.464,0,26.291,11.309,26.926,25.745
	c0.007,0.155,0.018,0.31,0.031,0.466c0.01,0.108,0.022,0.217,0.035,0.326c0.367,3.323,1.97,6.242,4.543,8.255
	c3.389,2.649,7.24,2.77,9.245,2.607c0.391-0.025,0.781-0.074,1.172-0.146c1.453-0.27,2.938-0.357,4.419-0.257
	c8.658,0.581,15.63,7.543,16.216,16.195c0.333,4.915-1.322,9.59-4.661,13.162c-3.344,3.578-7.881,5.549-12.774,5.549H361.08
	c-4.97,0-9.581-1.998-12.983-5.625C344.698,162.894,343.003,158.15,343.322,153.156z M256.66,26.404l34.342,41.644h-68.685
	L256.66,26.404z M203.117,88.048h107.084v18.177H203.117V88.048z M208.355,284.253h96.609v143.296h-96.609L208.355,284.253
	L208.355,284.253z M491.5,491.316H21.818v-43.767H491.5V491.316z"/>
<ellipse style="fill:#FFFFFF;" cx="256.66" cy="195.24" rx="48.02" ry="48.01"/>
<path d="M256.659,253.252c-31.991,0-58.019-26.024-58.019-58.014c0-31.988,26.027-58.013,58.019-58.013s58.018,26.024,58.018,58.013
	C314.678,227.228,288.65,253.252,256.659,253.252z M256.659,157.226c-20.964,0-38.019,17.053-38.019,38.013
	c0,20.961,17.055,38.014,38.019,38.014s38.018-17.053,38.018-38.014C294.678,174.278,277.623,157.226,256.659,157.226z"/>
<path d="M237.71,412.591c-5.523,0-10-4.478-10-10v-92.74c0-5.523,4.477-10,10-10c5.522,0,10,4.477,10,10v92.74
	C247.71,408.113,243.232,412.591,237.71,412.591z"/>
<path d="M275.608,412.591c-5.522,0-10-4.478-10-10v-92.74c0-5.523,4.478-10,10-10s10,4.477,10,10v92.74
	C285.608,408.113,281.131,412.591,275.608,412.591z"/>
<path d="M268.21,205.238h-11.551c-5.523,0-10-4.478-10-10v-21.523c0-5.522,4.478-10,10-10s10,4.478,10,10v11.523h1.551
	c5.522,0,10,4.477,10,10S273.732,205.238,268.21,205.238z"/>
<g>
</g>
<g>
</g>
<g>
</g>
<g>
</g>
<g>
</g>
<g>
</g>
<g>
</g>
<g>
</g>
<g>
</g>
<g>
</g>
<g>
</g>
<g>
</g>
<g>
</g>
<g>
</g>
<g>
</g>
</svg>
